<svg xmlns="http://www.w3.org/2000/svg" width="160" height="88.558" viewBox="0 0 160 88.558"><g transform="translate(-42.075 -54.1)"><g transform="translate(42.075 97.147)"><path d="M42.083,213.982l4.686-.24a5.1,5.1,0,0,0,.781,3q1.081,1.262,3.965,1.262A5.589,5.589,0,0,0,55,217.136a2.566,2.566,0,0,0,1.081-2.073,2.364,2.364,0,0,0-.871-1.8,18.312,18.312,0,0,0-3.395-1.742,31.34,31.34,0,0,1-4.055-2.013,5.868,5.868,0,0,1-2.013-2.1,6.089,6.089,0,0,1-.721-3,6.5,6.5,0,0,1,2.193-5.017c1.442-1.322,3.575-1.983,6.308-1.983a9.771,9.771,0,0,1,6.519,1.983,7.285,7.285,0,0,1,2.523,5.257l-4.716.21a3.993,3.993,0,0,0-1.232-2.644,4.672,4.672,0,0,0-3.124-.9,4.66,4.66,0,0,0-2.914.721,2.276,2.276,0,0,0-.871,1.8,2.037,2.037,0,0,0,.811,1.682,16.377,16.377,0,0,0,3.545,1.862c2.734,1.172,4.506,2.133,5.227,2.884a5.613,5.613,0,0,1,1.682,4.176,7.072,7.072,0,0,1-2.493,5.407,10.025,10.025,0,0,1-6.969,2.253,12.628,12.628,0,0,1-5.317-1.021,6.412,6.412,0,0,1-3.184-2.884A7.707,7.707,0,0,1,42.083,213.982Z" transform="translate(-42.075 -197.4)" fill="#fff"/><path d="M117.4,210.163l.721-3.485h2.313l.571-2.734,5.317-3.244-1.232,5.948h2.824l-.721,3.485h-2.824l-1.562,7.27a20.819,20.819,0,0,0-.391,2.253,1.13,1.13,0,0,0,.33.841,1.848,1.848,0,0,0,1.232.3c.21,0,.721-.03,1.532-.12l-.721,3.485a13.426,13.426,0,0,1-2.463.24,5.415,5.415,0,0,1-3.575-.961,3.3,3.3,0,0,1-1.111-2.674,23.5,23.5,0,0,1,.631-3.665l1.5-6.969H117.4Z" transform="translate(-94.772 -199.709)" fill="#fff"/><path d="M168.912,226.64a13.216,13.216,0,0,1-.33,3.034H156.866c0,.18-.03.33-.03.421a3.973,3.973,0,0,0,.991,2.794,3.127,3.127,0,0,0,2.4,1.051,4.015,4.015,0,0,0,3.635-2.4l4.176.691a8.674,8.674,0,0,1-3.274,3.785,8.519,8.519,0,0,1-4.6,1.262,7.7,7.7,0,0,1-5.678-2.223,8.029,8.029,0,0,1-2.193-5.858,10.662,10.662,0,0,1,1.983-6.338,8.906,8.906,0,0,1,7.66-3.755,6.743,6.743,0,0,1,5.047,1.953,7.8,7.8,0,0,1,1.923,5.587Zm-4.266.18c0-.21.03-.36.03-.481a4.188,4.188,0,0,0-.871-2.884,2.99,2.99,0,0,0-2.313-.961,3.763,3.763,0,0,0-2.613,1.081,5.7,5.7,0,0,0-1.562,3.214h7.33Z" transform="translate(-119.189 -212.581)" fill="#fff"/><path d="M283.912,226.64a13.215,13.215,0,0,1-.33,3.034H271.866c0,.18-.03.33-.03.421a3.973,3.973,0,0,0,.991,2.794,3.127,3.127,0,0,0,2.4,1.051,4.015,4.015,0,0,0,3.635-2.4l4.176.691a8.674,8.674,0,0,1-3.274,3.785,8.519,8.519,0,0,1-4.6,1.262,7.7,7.7,0,0,1-5.678-2.223,8.029,8.029,0,0,1-2.193-5.858,10.662,10.662,0,0,1,1.983-6.338,8.906,8.906,0,0,1,7.66-3.755,6.743,6.743,0,0,1,5.047,1.953,7.668,7.668,0,0,1,1.923,5.587Zm-4.236.18c0-.21.03-.36.03-.481a4.188,4.188,0,0,0-.871-2.884,2.99,2.99,0,0,0-2.313-.961,3.763,3.763,0,0,0-2.613,1.081,5.7,5.7,0,0,0-1.562,3.214h7.33Z" transform="translate(-199.643 -212.581)" fill="#fff"/><path d="M328.4,219.76h4.416l-.451,2.283A11.728,11.728,0,0,1,335.494,220a7.538,7.538,0,0,1,3.064-.6,4.66,4.66,0,0,1,3.395,1.232,4.418,4.418,0,0,1,1.232,3.274,22.026,22.026,0,0,1-.571,3.455l-2.1,9.763h-4.656l2.133-9.793c.3-1.472.451-2.343.481-2.613a1.834,1.834,0,0,0-.541-1.412,2.163,2.163,0,0,0-1.5-.511,4.279,4.279,0,0,0-2.313.871,6.194,6.194,0,0,0-2.013,2.283,17.554,17.554,0,0,0-1.172,4.115l-1.472,7.089H324.8Z" transform="translate(-239.87 -212.791)" fill="#fff"/><path d="M396.389,224.687l-4.566-.391a6.755,6.755,0,0,1,2.734-3.6,9.041,9.041,0,0,1,5.137-1.292,7.48,7.48,0,0,1,4.927,1.352,4.166,4.166,0,0,1,1.592,3.274,10.891,10.891,0,0,1-.15,1.652c-.09.6-.421,2.133-.961,4.626a24.736,24.736,0,0,0-.691,4.326,8.533,8.533,0,0,0,.391,2.463h-4.536a8.568,8.568,0,0,1-.33-1.953,7.56,7.56,0,0,1-2.373,1.772,6.346,6.346,0,0,1-2.7.631,4.8,4.8,0,0,1-3.545-1.412A4.959,4.959,0,0,1,389.9,232.5a5.272,5.272,0,0,1,1.532-3.965q1.532-1.487,5.5-1.8a23.49,23.49,0,0,0,4.476-.661,6.588,6.588,0,0,0,.3-1.562,1.594,1.594,0,0,0-.6-1.262,2.745,2.745,0,0,0-1.8-.511,3.455,3.455,0,0,0-1.983.511A2.753,2.753,0,0,0,396.389,224.687Zm4.446,4.326a6.694,6.694,0,0,1-1.111.21c-2.343.27-3.875.691-4.6,1.232a1.923,1.923,0,0,0-.781,1.592,1.841,1.841,0,0,0,.6,1.382,2.087,2.087,0,0,0,1.562.571,4.057,4.057,0,0,0,1.983-.511,3.539,3.539,0,0,0,1.412-1.322,9.524,9.524,0,0,0,.811-2.523Z" transform="translate(-285.414 -212.791)" fill="#fff"/><path d="M447.5,238.616a6.463,6.463,0,0,1,.06-.691l4.927.721a2.307,2.307,0,0,0,.24,1.142,1.94,1.94,0,0,0,.781.661,3.444,3.444,0,0,0,1.5.27,4.75,4.75,0,0,0,2.523-.6,2.914,2.914,0,0,0,1.142-1.472,18.956,18.956,0,0,0,.721-2.764l.18-.811a8.379,8.379,0,0,1-5.257,2.013,5.391,5.391,0,0,1-4.176-1.8,7.6,7.6,0,0,1-1.622-5.257,13.549,13.549,0,0,1,1.111-5.587,8.54,8.54,0,0,1,3.124-3.845,7.361,7.361,0,0,1,4.085-1.292,5.837,5.837,0,0,1,3.154.9,5.974,5.974,0,0,1,2.223,2.553l.6-3.064h4.386l-2.734,14.449c-.511,2.313-.931,3.965-1.262,4.927a8.486,8.486,0,0,1-1.172,2.343,5.72,5.72,0,0,1-1.682,1.472,6.877,6.877,0,0,1-2.4.841,15.732,15.732,0,0,1-3,.27,9.9,9.9,0,0,1-5.527-1.262c-1.292-.781-1.923-2.163-1.923-4.115Zm6.068-11.926a8.833,8.833,0,0,0-.511,2.854,4.432,4.432,0,0,0,.9,3,2.79,2.79,0,0,0,2.223,1.021,3.736,3.736,0,0,0,2.4-.931,5.923,5.923,0,0,0,1.8-2.644,9.582,9.582,0,0,0,.631-3.3A4.211,4.211,0,0,0,460,223.716a3.116,3.116,0,0,0-2.373-1.111,3.341,3.341,0,0,0-2.313.991,7.353,7.353,0,0,0-1.742,3.094Z" transform="translate(-325.711 -212.721)" fill="#fff"/><path d="M531.912,226.64a13.22,13.22,0,0,1-.33,3.034H519.866c0,.18-.03.33-.03.421a3.973,3.973,0,0,0,.991,2.794,3.127,3.127,0,0,0,2.4,1.051,4.015,4.015,0,0,0,3.635-2.4l4.176.691a8.674,8.674,0,0,1-3.274,3.785,8.519,8.519,0,0,1-4.6,1.262,7.7,7.7,0,0,1-5.678-2.223,8.029,8.029,0,0,1-2.193-5.858,10.662,10.662,0,0,1,1.983-6.338,8.906,8.906,0,0,1,7.66-3.755,6.743,6.743,0,0,1,5.047,1.953,7.8,7.8,0,0,1,1.923,5.587Zm-4.266.18c0-.21.03-.36.03-.481a4.188,4.188,0,0,0-.871-2.884,2.99,2.99,0,0,0-2.313-.961,3.763,3.763,0,0,0-2.613,1.081,5.7,5.7,0,0,0-1.562,3.214h7.33Z" transform="translate(-373.144 -212.581)" fill="#fff"/></g><g transform="translate(42.864 130.401)"><path d="M44.7,320.636,47.163,308.8h4.055a12.357,12.357,0,0,1,1.832.09,4.044,4.044,0,0,1,1.472.481,2.6,2.6,0,0,1,.931.961,2.813,2.813,0,0,1,.33,1.352,2.773,2.773,0,0,1-.541,1.712,3.286,3.286,0,0,1-1.682,1.081,2.571,2.571,0,0,1,1.412.9,2.284,2.284,0,0,1,.511,1.442,3.752,3.752,0,0,1-.6,2.013,3.483,3.483,0,0,1-1.682,1.382,8.431,8.431,0,0,1-2.914.421Zm2.824-1.893h2.343a6.961,6.961,0,0,0,1.983-.18,1.669,1.669,0,0,0,.811-.631,1.563,1.563,0,0,0,.3-.931,1.182,1.182,0,0,0-.451-.961,2.3,2.3,0,0,0-1.442-.391H48.155Zm1.081-5.137h1.862a6.324,6.324,0,0,0,1.8-.18,1.689,1.689,0,0,0,.841-.571,1.565,1.565,0,0,0,.27-.871,1.1,1.1,0,0,0-.27-.751,1.384,1.384,0,0,0-.751-.391,9.478,9.478,0,0,0-1.292-.06H49.176Z" transform="translate(-44.7 -308.59)" fill="#fff"/><path d="M85.7,315.59a8.567,8.567,0,0,1,.3-2.223,7.5,7.5,0,0,1,1.262-2.7,5.908,5.908,0,0,1,2.133-1.8,6.127,6.127,0,0,1,2.914-.661,4.778,4.778,0,0,1,3.545,1.352,4.872,4.872,0,0,1,1.352,3.6,8.192,8.192,0,0,1-.871,3.635,6.751,6.751,0,0,1-2.373,2.7,6.231,6.231,0,0,1-3.425.931,4.751,4.751,0,0,1-2.764-.751,4.1,4.1,0,0,1-1.592-1.862A5.3,5.3,0,0,1,85.7,315.59Zm2.4-.03a2.863,2.863,0,0,0,.751,2.043,2.5,2.5,0,0,0,1.953.811,3.089,3.089,0,0,0,1.893-.661,4.644,4.644,0,0,0,1.5-1.953,6.318,6.318,0,0,0,.6-2.553,3.04,3.04,0,0,0-.751-2.193,2.494,2.494,0,0,0-1.923-.781,3.283,3.283,0,0,0-2.884,1.652A6.074,6.074,0,0,0,88.1,315.56Z" transform="translate(-73.384 -308.17)" fill="#fff"/><path d="M127.133,320.636H124.7l2.463-11.836h5.257a6.367,6.367,0,0,1,2.1.27,2.528,2.528,0,0,1,1.232,1.021,3.342,3.342,0,0,1,.451,1.8,3.583,3.583,0,0,1-.9,2.493,4.222,4.222,0,0,1-2.734,1.2,4.934,4.934,0,0,1,.871,1.111,28.456,28.456,0,0,1,1.8,3.935h-2.613c-.21-.661-.631-1.712-1.232-3.124a3.633,3.633,0,0,0-1.051-1.532,2.326,2.326,0,0,0-1.2-.24h-.991Zm1.382-6.669h1.292a9.618,9.618,0,0,0,2.613-.24,2.035,2.035,0,0,0,.991-.721,1.78,1.78,0,0,0,.36-1.051,1.084,1.084,0,0,0-.511-.961,3.389,3.389,0,0,0-1.382-.18h-2.674Z" transform="translate(-100.668 -308.59)" fill="#fff"/><path d="M165.4,315.59a8.567,8.567,0,0,1,.3-2.223,7.5,7.5,0,0,1,1.262-2.7,5.908,5.908,0,0,1,2.133-1.8,6.127,6.127,0,0,1,2.914-.661,4.778,4.778,0,0,1,3.545,1.352,4.872,4.872,0,0,1,1.352,3.6,8.192,8.192,0,0,1-.871,3.635,6.751,6.751,0,0,1-2.373,2.7,6.231,6.231,0,0,1-3.425.931,4.751,4.751,0,0,1-2.764-.751,4.1,4.1,0,0,1-1.592-1.862A5.3,5.3,0,0,1,165.4,315.59Zm2.4-.03a2.863,2.863,0,0,0,.751,2.043,2.5,2.5,0,0,0,1.953.811,3.089,3.089,0,0,0,1.893-.661,4.644,4.644,0,0,0,1.5-1.953,6.318,6.318,0,0,0,.6-2.553,3.04,3.04,0,0,0-.751-2.193,2.494,2.494,0,0,0-1.923-.781,3.283,3.283,0,0,0-2.884,1.652A6.074,6.074,0,0,0,167.8,315.56Z" transform="translate(-129.142 -308.17)" fill="#fff"/><path d="M208.912,308.83h2.433l-1.412,6.429-.36,1.562a2.157,2.157,0,0,0-.06.511,1.227,1.227,0,0,0,.571,1.051,2.684,2.684,0,0,0,1.622.421,3.572,3.572,0,0,0,1.592-.33,2.057,2.057,0,0,0,.961-.991,9.322,9.322,0,0,0,.691-2.223L216.3,308.8h2.433l-1.382,6.7a11.9,11.9,0,0,1-1.021,3,4.282,4.282,0,0,1-1.742,1.682,6.223,6.223,0,0,1-2.974.661,4.653,4.653,0,0,1-3.274-1.021,3.306,3.306,0,0,1-1.142-2.583,6.968,6.968,0,0,1,.06-.721c.03-.18.12-.661.3-1.472Z" transform="translate(-158.385 -308.59)" fill="#fff"/><path d="M251.068,313.908h5.287l-1.051,5.077a9.483,9.483,0,0,1-2.283,1.021,9.634,9.634,0,0,1-2.764.421,5.053,5.053,0,0,1-3.364-.991A4.92,4.92,0,0,1,245.3,315.5a8.353,8.353,0,0,1,.691-3.3,6.583,6.583,0,0,1,2.343-2.944,6.191,6.191,0,0,1,3.575-1.051,5.239,5.239,0,0,1,3.274.961,4.7,4.7,0,0,1,1.652,2.764l-2.253.27a2.846,2.846,0,0,0-.961-1.5,2.733,2.733,0,0,0-1.682-.511,4.189,4.189,0,0,0-2.163.6,4.054,4.054,0,0,0-1.532,1.893,7.03,7.03,0,0,0-.571,2.794,3.044,3.044,0,0,0,.691,2.193,2.588,2.588,0,0,0,1.983.721,5.955,5.955,0,0,0,1.592-.21,9.448,9.448,0,0,0,1.412-.511l.36-1.742h-3.034Z" transform="translate(-185.04 -308.17)" fill="#fff"/><path d="M292.211,315.449h-4.566l-1.111,5.287H284.1l2.463-11.836H289l-.961,4.566H292.6l.961-4.566H296l-2.463,11.836H291.1Z" transform="translate(-212.184 -308.66)" fill="#fff"/><path d="M346.89,315.91l2.463.36a6.238,6.238,0,0,1-2.163,3.034,5.6,5.6,0,0,1-3.365,1.051,4.433,4.433,0,0,1-3.395-1.322,5.362,5.362,0,0,1-1.232-3.785,8.333,8.333,0,0,1,.811-3.695A5.744,5.744,0,0,1,342.294,309a5.837,5.837,0,0,1,3.154-.9,4.474,4.474,0,0,1,3.094,1.021,4.167,4.167,0,0,1,1.382,2.794l-2.343.24a2.459,2.459,0,0,0-.751-1.5,2.266,2.266,0,0,0-1.472-.451,3.438,3.438,0,0,0-1.892.6,4.406,4.406,0,0,0-1.412,1.923,6.745,6.745,0,0,0-.511,2.613,3.2,3.2,0,0,0,.691,2.193,2.181,2.181,0,0,0,1.682.781,2.915,2.915,0,0,0,1.742-.6A3.353,3.353,0,0,0,346.89,315.91Z" transform="translate(-250.732 -308.1)" fill="#fff"/><path d="M377.2,315.59a8.568,8.568,0,0,1,.3-2.223,7.5,7.5,0,0,1,1.262-2.7,5.908,5.908,0,0,1,2.133-1.8,6.127,6.127,0,0,1,2.914-.661,4.777,4.777,0,0,1,3.545,1.352,4.872,4.872,0,0,1,1.352,3.6,8.192,8.192,0,0,1-.871,3.635,6.751,6.751,0,0,1-2.373,2.7,6.231,6.231,0,0,1-3.425.931,4.751,4.751,0,0,1-2.764-.751,4.1,4.1,0,0,1-1.592-1.862A5.3,5.3,0,0,1,377.2,315.59Zm2.4-.03a2.863,2.863,0,0,0,.751,2.043,2.5,2.5,0,0,0,1.953.811,3.089,3.089,0,0,0,1.892-.661,4.644,4.644,0,0,0,1.5-1.953,6.318,6.318,0,0,0,.6-2.553,3.04,3.04,0,0,0-.751-2.193,2.494,2.494,0,0,0-1.923-.781,3.283,3.283,0,0,0-2.884,1.652A6.074,6.074,0,0,0,379.6,315.56Z" transform="translate(-277.317 -308.17)" fill="#fff"/><path d="M420.612,308.83h2.433l-1.412,6.429-.36,1.562a2.156,2.156,0,0,0-.06.511,1.227,1.227,0,0,0,.571,1.051,2.684,2.684,0,0,0,1.622.421,3.572,3.572,0,0,0,1.592-.33,2.057,2.057,0,0,0,.961-.991,9.321,9.321,0,0,0,.691-2.223L428,308.8h2.433l-1.382,6.7a11.9,11.9,0,0,1-1.021,3,4.282,4.282,0,0,1-1.742,1.682,6.222,6.222,0,0,1-2.974.661,4.653,4.653,0,0,1-3.274-1.021,3.306,3.306,0,0,1-1.141-2.583,6.972,6.972,0,0,1,.06-.721c.03-.18.12-.661.3-1.472Z" transform="translate(-306.491 -308.59)" fill="#fff"/><path d="M464.042,320.636h-2.253l-3.184-7.961-1.652,7.961H454.7l2.463-11.836h2.253l3.214,7.9,1.652-7.9h2.253Z" transform="translate(-331.536 -308.59)" fill="#fff"/><path d="M503.29,315.91l2.463.36a6.237,6.237,0,0,1-2.163,3.034,5.6,5.6,0,0,1-3.365,1.051,4.433,4.433,0,0,1-3.394-1.322,5.362,5.362,0,0,1-1.232-3.785,8.333,8.333,0,0,1,.811-3.695A5.744,5.744,0,0,1,498.694,309a5.837,5.837,0,0,1,3.154-.9,4.474,4.474,0,0,1,3.094,1.021,4.167,4.167,0,0,1,1.382,2.794l-2.343.24a2.459,2.459,0,0,0-.751-1.5,2.266,2.266,0,0,0-1.472-.451,3.438,3.438,0,0,0-1.893.6,4.406,4.406,0,0,0-1.412,1.923,6.745,6.745,0,0,0-.511,2.613,3.2,3.2,0,0,0,.691,2.193,2.181,2.181,0,0,0,1.682.781,2.915,2.915,0,0,0,1.742-.6A3.063,3.063,0,0,0,503.29,315.91Z" transform="translate(-360.15 -308.1)" fill="#fff"/><path d="M530.7,320.636l2.463-11.836H535.6l-2.463,11.836Z" transform="translate(-384.706 -308.59)" fill="#fff"/><path d="M545.2,320.636l2.463-11.836H550.1l-2.043,9.853h6.008l-.421,1.983Z" transform="translate(-394.85 -308.59)" fill="#fff"/></g><g transform="translate(90.64 54.1)"><path d="M434.9,54.1c-.03.15-.27.06-.33.18,0,.09,0,.15.06.15-.18.12-.3-.15-.33-.3C434.42,54.07,434.69,54.13,434.9,54.1Z" transform="translate(-365.04 -54.1)" fill="#009453" fill-rule="evenodd"/><path d="M441.389,54.1c.09,0,.15,0,.15.12C441.479,54.31,441.359,54.25,441.389,54.1Z" transform="translate(-369.997 -54.1)" fill="#009453" fill-rule="evenodd"/><path d="M423.141,55.6a5.536,5.536,0,0,1,1.262.3c-.03.27-.3.09-.511.12-.03.24.24.481.421.541.361.15.691-.36.961.06-.3.03-.6.27-.9.27-.33,0-.421-.27-.691-.36-.15-.03-.24.03-.27.12-.451-.03-.481-.511-.811-.661C422.75,55.84,423.231,55.991,423.141,55.6Z" transform="translate(-356.855 -55.149)" fill="#009453" fill-rule="evenodd"/><path d="M430.583,60.2c.12,0,.15.12.18.21C430.613,60.44,430.552,60.35,430.583,60.2Z" transform="translate(-362.435 -58.368)" fill="#009453" fill-rule="evenodd"/><path d="M399.309,62.3c0,.15-.3.27-.27.541-.21.06-.24.27-.33.421.06.15.24.15.33.27a1.372,1.372,0,0,0,.481-.33c-.03-.15-.24-.09-.3-.21-.03-.09.06-.09.03-.18.27.06.27.36.541.421a.7.7,0,0,1,.36-.06c.03.21.15.451.06.631-.18,0,0-.18-.18-.21a1.238,1.238,0,0,0-.36.03c0,.12.03.27-.03.33a.813.813,0,0,0-.661.06v.36c-.15.12-.451.15-.511-.03a2.429,2.429,0,0,0-.15.811,4.446,4.446,0,0,1-.6.03.821.821,0,0,1,.06.481c-.18.03-.21-.06-.33-.12-.15.03,0,.36-.12.451-.12,0-.18-.06-.33-.03s-.09.27-.12.451c-.24.06-.571.33-.811.15a.322.322,0,0,1,.03-.33c0-.09-.09-.06-.12-.15-.421.12-.841.03-1.262.15a1.24,1.24,0,0,1-.15.811c.03.21.18.24.21.451-.18-.03-.27.09-.481.06-.15-.03-.24-.18-.36-.18-.33-.03-.391.24-.6.481.06.27.391.21.481.451a6.083,6.083,0,0,0-1.111.21c.06.24.03.391-.15.481-.12-.03,0-.12-.03-.27a1.076,1.076,0,0,1-.12-.33c-.12-.15-.391-.15-.421-.36.27-.03.691-.06.691-.451a3.465,3.465,0,0,0-.841-.18c-.21-.391-.871-.12-.931-.6-.03-.511.631-.451,1.081-.631a1.69,1.69,0,0,0,.541.21.346.346,0,0,0,.21.421c.15-.09.391-.06.511-.15.18-.09.27-.33.451-.421a.9.9,0,0,0,.6-.12,6.536,6.536,0,0,1-.03-.751,1.505,1.505,0,0,1,.661.06.82.82,0,0,0,.36-.27c.24.12.391,0,.661,0,.12-.24.421-.3.691-.421-.06-.21-.21-.451-.03-.631-.03-.21-.451-.03-.511-.18.12-.15.451-.12.511-.421,0-.15-.12-.18-.15-.3.18-.421.991-.18,1.051.18a.534.534,0,0,1-.12.3c.03.15.12.18.27.21.06-.33.391-.421.751-.451,0-.15-.12-.21-.15-.36-.21,0-.451.03-.421-.21.18-.12.3.09.541.03C398.768,62.721,398.948,62.42,399.309,62.3Zm-3.184,3.425c.18-.03.24-.12.21-.33C396.095,65.364,395.944,65.6,396.125,65.725Z" transform="translate(-334.676 -59.837)" fill="#009453" fill-rule="evenodd"/><path d="M426.07,63.108c-.15,0-.27,0-.27-.15C425.89,62.837,426.1,62.9,426.07,63.108Z" transform="translate(-359.094 -60.254)" fill="#009453" fill-rule="evenodd"/><path d="M424.778,64c.06.03.15.03.18.06,0,.12-.06.15-.12.21C424.718,64.27,424.688,64.09,424.778,64Z" transform="translate(-358.342 -61.026)" fill="#009453" fill-rule="evenodd"/><path d="M407.9,64.891c.15-.03.15.12.27.15-.03.09-.18,0-.27,0Z" transform="translate(-346.571 -61.646)" fill="#009453" fill-rule="evenodd"/><path d="M423.763,66.016c-.03.06-.03.15-.06.18-.09,0-.18,0-.21-.03A.166.166,0,0,1,423.763,66.016Z" transform="translate(-357.477 -62.411)" fill="#009453" fill-rule="evenodd"/><path d="M403.862,68.8c.03.18-.06.24-.03.421a.648.648,0,0,0-.481.27.616.616,0,0,1-.511-.15.558.558,0,0,1-.541-.12c0-.391.631-.36.841-.18.09-.12-.03-.27-.03-.36C403.381,68.526,403.622,68.737,403.862,68.8Z" transform="translate(-342.653 -64.261)" fill="#009453" fill-rule="evenodd"/><path d="M418.695,70.1c0,.15-.21.12-.3.06C418.365,69.985,418.635,69.985,418.695,70.1Z" transform="translate(-353.911 -65.239)" fill="#009453" fill-rule="evenodd"/><path d="M398.563,74.967a.588.588,0,0,1-.451.27C397.962,74.907,398.293,74.847,398.563,74.967Z" transform="translate(-339.697 -68.659)" fill="#009453" fill-rule="evenodd"/><path d="M410.772,76.5c.06.03.06.12.12.18-.06.15-.15.18-.03.33a.168.168,0,0,1-.18.03A.5.5,0,0,1,410.772,76.5Z" transform="translate(-348.482 -69.771)" fill="#009453" fill-rule="evenodd"/><path d="M379.156,77.9c-.03.24.12.3.18.451-.09.631.481.631.9.781.03.15.03.36.18.421.18,0,.3-.18.451-.12-.03.18-.33.09-.36.27.03.15.09.24.12.36.27-.06.3.15.541.12.21,0,.21-.21.451-.18a1.345,1.345,0,0,1-.12.6c-.391,0-.33-.421-.781-.36-.09.15,0,.21.03.33a.251.251,0,0,1-.27.06c-.15.12-.18.36-.36.36a.328.328,0,0,1-.3-.33c.03-.21.33-.21.361-.421-.12-.15-.511-.24-.6,0-.27.03-.36-.12-.481-.27-.541.06-.451-.481-.961-.451-.09.15.09.24.18.33-.15.36.18.511.451.6-.12.3-.451.21-.691.21,0,.24.24.24.18.541.03.09.15.12.21.18-.03.12-.12.18-.15.33a1.347,1.347,0,0,1-.361.03c-.09.03-.09.15-.06.27-.21,0-.27-.15-.421-.21-.15.09-.18.27-.451.21-.12.09-.03.24-.06.33-.18-.06-.451,0-.541-.15-.15.03-.15.21-.33.21-.3-.03-.27-.451-.631-.451-.21-.33-.421-.721-.961-.751.03-.18.33-.15.481-.21.451.21,1.021.3,1.472.511.12.03.18-.03.27-.06.15.03.15.21.3.21.481-.03.451-.571.781-.781,0-.09-.06-.12-.03-.21a.4.4,0,0,1,.21-.18c-.06-.18-.24-.06-.421-.12a1.321,1.321,0,0,0-.811-.3.554.554,0,0,1,.3-.481c.15,0,.12.24.21.3h.27c.06-.27-.21-.21-.3-.33-.03-.421.391-.391.451-.751.27.03.33.27.541.33.24.06.451-.12.811-.06.3-.21.06-.661-.27-.691C378.946,78.291,378.856,77.9,379.156,77.9Zm-.18,1.562c.15.21.571.18.6.511.27-.06.481.09.661,0,.03-.27-.27-.18-.421-.27C379.967,79.192,379.066,78.981,378.976,79.462Z" transform="translate(-323.204 -70.751)" fill="#009453" fill-rule="evenodd"/><path d="M405.9,78.7h.12c0,.09,0,.15-.12.15Z" transform="translate(-345.172 -71.31)" fill="#009453" fill-rule="evenodd"/><path d="M407.4,78.7c.06,0,.12,0,.12.06h-.12Z" transform="translate(-346.221 -71.31)" fill="#009453" fill-rule="evenodd"/><path d="M387.4,79.9c0-.06.18-.06.12.03h-.06A.1.1,0,0,0,387.4,79.9Z" transform="translate(-332.229 -72.122)" fill="#009453" fill-rule="evenodd"/><path d="M387.861,80.84c-.21,0-.24-.18-.361-.27C387.62,80.39,387.981,80.69,387.861,80.84Z" transform="translate(-332.299 -72.579)" fill="#009453" fill-rule="evenodd"/><path d="M380.5,86.789c.06-.09.3-.03.36,0C380.86,87.06,380.59,86.879,380.5,86.789Z" transform="translate(-327.402 -76.936)" fill="#009453" fill-rule="evenodd"/><path d="M392.7,90.4c.15.03.18.18.18.33-.18.09-.27-.15-.481-.15C392.43,90.46,392.58,90.46,392.7,90.4Z" transform="translate(-335.727 -79.496)" fill="#009453" fill-rule="evenodd"/><path d="M389.69,90.8a1.35,1.35,0,0,0,.36.18c0,.33.24.451.27.781-.15.03-.18-.06-.3-.06-.18.03.06.24-.06.33-.12,0-.12-.06-.18-.12.06-.24.24-.511.12-.811-.12,0-.24.03-.3-.03C389.6,90.92,389.66,90.89,389.69,90.8Z" transform="translate(-333.768 -79.775)" fill="#009453" fill-rule="evenodd"/><path d="M387.2,95.576c.12-.03.21,0,.18.15C387.26,95.756,387.2,95.726,387.2,95.576Z" transform="translate(-332.089 -83.109)" fill="#009453" fill-rule="evenodd"/><path d="M384.833,98c.12.12-.21.09,0,0Z" transform="translate(-330.383 -84.812)" fill="#009453" fill-rule="evenodd"/><path d="M382.168,99.606c-.03.12.06.12.03.27-.21.15-.511.24-.631.481-.18,0-.03-.12-.03-.21-.09-.21-.571-.03-.541-.33.12-.09.18,0,.33-.03a.5.5,0,0,0,.3-.3A1.1,1.1,0,0,1,382.168,99.606Z" transform="translate(-327.749 -85.848)" fill="#009453" fill-rule="evenodd"/><path d="M377.35,101.852c-.09.03-.09-.03-.15-.03C377.2,101.7,377.38,101.732,377.35,101.852Z" transform="translate(-325.093 -87.433)" fill="#009453" fill-rule="evenodd"/><path d="M380.13,102.928c-.09-.03-.3.06-.33-.03C379.8,102.778,380.191,102.778,380.13,102.928Z" transform="translate(-326.912 -88.179)" fill="#009453" fill-rule="evenodd"/><path d="M376.8,103.1c.06,0,.12,0,.12.06h-.12Z" transform="translate(-324.813 -88.38)" fill="#009453" fill-rule="evenodd"/><path d="M374.375,106.2c.12.06.15.15.12.3C374.375,106.44,374.345,106.35,374.375,106.2Z" transform="translate(-323.109 -90.549)" fill="#009453" fill-rule="evenodd"/><path d="M372.86,106.7h.06v.12h-.12C372.83,106.73,372.86,106.73,372.86,106.7Z" transform="translate(-322.015 -90.899)" fill="#009453" fill-rule="evenodd"/><path d="M377.292,106.794c.12,0,.24-.03.21.12C377.442,106.975,377.262,106.944,377.292,106.794Z" transform="translate(-325.155 -90.963)" fill="#009453" fill-rule="evenodd"/><path d="M379.4,106.782c.12-.03.18.03.15.15C379.43,106.932,379.4,106.9,379.4,106.782Z" transform="translate(-326.632 -90.951)" fill="#009453" fill-rule="evenodd"/><path d="M356.275,107.427c-.24,0-.511.03-.481-.21C355.975,107.1,356.155,107.307,356.275,107.427Z" transform="translate(-310.116 -91.235)" fill="#009453" fill-rule="evenodd"/><path d="M357.428,108.1c.12,0,.15.12.18.21C357.458,108.43,357.338,108.28,357.428,108.1Z" transform="translate(-311.239 -91.878)" fill="#009453" fill-rule="evenodd"/><path d="M345.27,113c.15.12.21.33.541.27.03.09.09.12.06.27a3.74,3.74,0,0,0-.6.3.319.319,0,0,0-.27-.3C345.24,113.391,345.24,113.21,345.27,113Z" transform="translate(-302.566 -95.306)" fill="#009453" fill-rule="evenodd"/><path d="M364.731,115.1c.03.18.12.481.12.541-.27-.09-.421.15-.751.03a.768.768,0,0,0,0-.451C364.31,115.07,364.46,115.13,364.731,115.1Z" transform="translate(-315.929 -96.776)" fill="#009453" fill-rule="evenodd"/><path d="M361.969,115.7a.322.322,0,0,1-.33-.451C361.849,115.13,362,115.551,361.969,115.7Z" transform="translate(-314.188 -96.866)" fill="#009453" fill-rule="evenodd"/><path d="M366.9,116.863c.06-.06.27.06.27.18C366.99,117.073,366.99,116.893,366.9,116.863Z" transform="translate(-317.887 -97.998)" fill="#009453" fill-rule="evenodd"/><path d="M331.3,126c.06,0,.06.03.12.03,0,.03-.03.03-.03.06h-.06C331.3,126.09,331.3,126.03,331.3,126Z" transform="translate(-292.982 -104.401)" fill="#009453" fill-rule="evenodd"/><path d="M329.4,127.826c-.15.18-.481.15-.691.27-.06-.06-.03-.15-.03-.27C328.833,127.675,329.283,127.555,329.4,127.826Z" transform="translate(-291.145 -105.566)" fill="#009453" fill-rule="evenodd"/><path d="M340.989,136.487c.21-.03.3.06.27.3-.06.06-.15.03-.27.03C340.9,136.757,340.959,136.577,340.989,136.487Z" transform="translate(-299.727 -111.734)" fill="#009453" fill-rule="evenodd"/><path d="M345.786,137.1a.142.142,0,0,1,.15.15C345.846,137.25,345.756,137.22,345.786,137.1Z" transform="translate(-303.112 -112.167)" fill="#009453" fill-rule="evenodd"/><path d="M320.086,138.782c.12-.03.18.03.15.15C320.146,138.932,320.056,138.932,320.086,138.782Z" transform="translate(-285.132 -113.338)" fill="#009453" fill-rule="evenodd"/><path d="M316.3,141.69c.03-.12.09.03.15,0C316.45,141.78,316.33,141.69,316.3,141.69Z" transform="translate(-282.488 -115.345)" fill="#009453" fill-rule="evenodd"/><path d="M339.3,142.4a.19.19,0,0,1,.21.21c-.03.03-.12.03-.21.03C339.235,142.55,339.235,142.52,339.3,142.4Z" transform="translate(-298.543 -115.875)" fill="#009453" fill-rule="evenodd"/><path d="M298.331,161.011c-.12.03-.391-.06-.511-.03-.21-.12.06-.481.21-.481C298.211,160.5,298.361,160.86,298.331,161.011Z" transform="translate(-269.505 -128.538)" fill="#009453" fill-rule="evenodd"/><path d="M319.97,162.843a.159.159,0,0,1-.12.21c-.09,0-.12-.06-.15-.12C319.73,162.783,319.85,162.813,319.97,162.843Z" transform="translate(-284.866 -130.159)" fill="#009453" fill-rule="evenodd"/><path d="M318.386,163.1a.159.159,0,0,1,.18.18C318.447,163.37,318.356,163.28,318.386,163.1Z" transform="translate(-283.943 -130.357)" fill="#009453" fill-rule="evenodd"/><path d="M316.57,168.158a.225.225,0,0,1-.27,0C316.3,168.068,316.57,167.977,316.57,168.158Z" transform="translate(-282.488 -133.822)" fill="#009453" fill-rule="evenodd"/><path d="M314.03,173.784c-.15,0-.33.03-.33-.12C313.82,173.633,314.03,173.633,314.03,173.784Z" transform="translate(-280.669 -137.736)" fill="#009453" fill-rule="evenodd"/><path d="M296.38,193.742c.03-.09.03.09.03.12C296.41,193.952,296.35,193.892,296.38,193.742Z" transform="translate(-268.546 -151.776)" fill="#009453" fill-rule="evenodd"/><path d="M283.97,211.445c-.09.03-.27.09-.27-.06C283.76,211.325,284,211.3,283.97,211.445Z" transform="translate(-259.681 -164.103)" fill="#009453" fill-rule="evenodd"/><path d="M277,221.2h.12c0,.06-.03.06-.03.12h-.06A.181.181,0,0,1,277,221.2Z" transform="translate(-254.993 -171.003)" fill="#009453" fill-rule="evenodd"/><path d="M272.446,222.6c.09,0,.15.06.15.18C272.446,222.81,272.386,222.66,272.446,222.6Z" transform="translate(-251.791 -171.983)" fill="#009453" fill-rule="evenodd"/><path d="M272.05,223.4c.03.12-.09.12-.15.06C271.9,223.43,271.96,223.4,272.05,223.4Z" transform="translate(-251.425 -172.542)" fill="#009453" fill-rule="evenodd"/><path d="M273.694,223.646c-.03.03-.03.06-.03.12h-.21C273.364,223.526,273.6,223.556,273.694,223.646Z" transform="translate(-252.498 -172.668)" fill="#009453" fill-rule="evenodd"/><path d="M220.5,290.4c.15,0,.3,0,.27.18A.207.207,0,0,1,220.5,290.4Z" transform="translate(-215.466 -219.416)" fill="#009453" fill-rule="evenodd"/><path d="M257.14,93.841a.952.952,0,0,1,1.292.481c-.15.24-.33.12-.631.06-.15-.03-.33.03-.451,0a2.953,2.953,0,0,1-.481-.15c-.15-.09-.33-.33-.6-.12-.03.18.15.12.12.33a1.733,1.733,0,0,1-.781-.03c-.18.511.36.6.33,1.081-.21-.03-.33.12-.511.15-.36.03-.751-.18-1.081.06a.574.574,0,0,0,.15.36c.36,0,.6.3.811.511.12.12.36.18.3.36-.03,0-.03.06-.03.06a.667.667,0,0,1-.811-.3c-.631-.06-.451.751-.12.841a.388.388,0,0,0,.33-.15c.12.09-.03.27-.06.33a.587.587,0,0,0-.751.18c-.18,0-.24-.06-.36.03a1.842,1.842,0,0,1,.27.781c-.33.06-.21-.481-.541-.3.03.18.27.33.03.481.06.06.15.06.21.12a.83.83,0,0,0-.06.421c-.12-.12-.12-.33-.3-.421-.21,0-.27.12-.481.06-.06-.12,0-.33-.12-.421a1.994,1.994,0,0,0-.6.18c-.03.3.15.391.15.661-.3.12-.421-.21-.751-.18-.06-.15-.09-.33-.27-.36.03-.09.12-.12.15-.21-.03-.12-.15-.15-.27-.18a.44.44,0,0,0-.06-.36.489.489,0,0,0-.481-.751,1.2,1.2,0,0,0-1.262-.36c-.09.12-.12.3-.27.36,0,.15.15.12.15.27a2.019,2.019,0,0,0-.18.36c.33.03.751-.12,1.051.12-.09.24-.15.631.12.781.27-.09.481-.03.751-.12.06.09.03.24.06.36-.3-.06-.33.27-.541.3-.18.03-.3-.15-.6-.12,0,.03,0,.06-.03.06.06.36.571.27.781.481,0,.09.06.06,0,.15a1.32,1.32,0,0,1,.421.811c-.21.18-.36.03-.541-.06-.15,0-.18.12-.21.21,0,.12.09.15.15.18.21.03.27-.24.451-.15.06.3-.18.3-.3.421-.03.15.09.15.06.27-.15,0-.36-.03-.451.03a1.387,1.387,0,0,0,.27.451c-.06.18-.391.18-.541.12-.06-.24.18-.15.18-.33.03-.12-.06-.12-.06-.18-.18.03-.3.21-.481.21-.06,0-.09-.06-.15-.03-.21.09-.27.24-.421.451h-.36c-.18.03-.21.21-.3.33a6.987,6.987,0,0,1-.841.15c.12.12.03.21.06.33.12.27.481.21.541.541-.24.03-.21-.15-.421-.15-.12.12.18.21.06.33-.18.18-.571-.06-.751.12-.03.15.12.12.12.27a2.118,2.118,0,0,0-.18.751c.06.18.33.15.27.451-.15.03-.451-.03-.631.06-.09.09.03.12,0,.27a.833.833,0,0,1-.841-.12c-.391.18-.931.03-1.322.15-.12.06-.15.21-.21.33a1.773,1.773,0,0,1-.421.06c.24.3.721.09,1.081.18.03.391.27.571.33.9a.982.982,0,0,1-.691-.421.349.349,0,0,0-.12.541c-.18.15-.33-.03-.6,0-.12,0-.06.18-.06.3a.4.4,0,0,1-.6.06c-.06-.21.15-.3.03-.451-.421.03-.12.631-.33.811.03.21.24.21.21.451.03.15.24.09.21.3-.21.12-.3-.06-.451-.12.09.33-.18.33-.06.691-.3.03-.27-.3-.481-.36a.646.646,0,0,0-.15.781c0,.18-.15.21-.15.421-.511-.03-.421.571-.841.631a.58.58,0,0,1-.12.481c-.451.09-.6-.3-.961-.15-.03.18.06.27.06.421a1.39,1.39,0,0,1-.481.451.362.362,0,0,1-.12-.36c-.21.06-.09.27-.03.421-.12.09-.391.06-.421.27.06.18.36.09.33.33.15-.06.33-.06.481-.12a3.116,3.116,0,0,1,.12.3.79.79,0,0,0-.481.451c-.09-.03-.24-.03-.33-.06-.09-.27-.3-.571-.691-.421-.09.09.21.09.15.27a.834.834,0,0,0-.481.421c0,.15.12.15.12.3a.973.973,0,0,0-.691.27c-.03.18.15.15.21.27.24-.27.631.06.841.15-.03.15-.18.18-.21.33a1.019,1.019,0,0,0-.751.21c-.12.06-.3.12-.421.18-.27.15-.421.481-.781.511-.06-.06,0-.21-.06-.27-.391-.03-.541.18-.751.33.06.511.991.3.841.9-.12.09-.21-.06-.36-.03-.12.03-.06.24-.18.27-.18-.03-.21-.24-.33-.33-.36-.03-.3.33-.6.33-.03.27-.18.751.15.691.09-.06-.09-.36,0-.451.18.03.21.24.3.36.24.03.541-.03.6.18-.09.21-.33.24-.541.33.03.24.27.24.36.421v.421c-.06.03-.15.03-.18.06-.18.03-.15-.15-.27-.18-.18.03-.09.15-.15.3-.3-.06-.451.18-.661.15s-.21-.24-.421-.36a1.538,1.538,0,0,1-.751.421c0,.391.541.27.631.03.24.09.631.03.811.18,0,.12-.15.09-.18.18a.518.518,0,0,1-.27.451c-.09.09.06.12.03.27a.477.477,0,0,1-.631-.27c-.24,0-.541-.3-.691-.12a3.458,3.458,0,0,1,.421.511c-.06.18-.24.27-.36.421a1.847,1.847,0,0,1-.421-.03c-.15.03-.12.21-.12.36-.27.09-.3.421-.511.541a1.237,1.237,0,0,1-.03.36c-.24.15-.541.21-.631.511-.721.24-.18.871.27.991-.21.12-.571,0-.781.18.03.18.21.18.27.3-.27.24-.391.6-.751.781-.12,0-.15-.12-.18-.21-.15,0-.24.15-.36.03-.06-.24.15-.18.15-.33-.27-.06-.12.24-.33.21-.24-.12-.3-.391-.481-.541,0-.12.12-.15.12-.27-.03-.15-.18-.24-.3-.3-.18.15-.6.09-.781.27a.876.876,0,0,0,.421.451c-.09.36.27.27.21.6a1.429,1.429,0,0,1,.9.691c-.03.21-.18.24-.15.451a1.039,1.039,0,0,0-.451.33c-.391-.06-.451.18-.751.18.12.09.36.06.421.21,0,.33-.481.15-.541.36.15.18-.09.21,0,.451-.12.18-.15.451-.3.631-.33.09-.841.03-.931.36,0,.21.24.21.12.421.27,0,.21-.33.541-.27.09.391-.481.451-.6.751-.03.24.06.33,0,.511-.27.06-.571.18-.421.541-.27.24-.481.6-.961.631-.18-.03-.24-.15-.451-.15a.546.546,0,0,0-.3.451c.18.12.571.03.511.36a1.669,1.669,0,0,1-.631.12c-.12-.03-.12-.15-.21-.21-.15-.09-.391-.12-.541-.21-.12-.09-.12-.21-.27-.21-.06.24-.15.391-.12.541.03.24.391.3.3.631.15.12.481.18.6.03.09.03.12.12.18.18,0,.3-.6.3-.691.06-.33.21-.3.871-.481,1.142-.15,0-.21-.09-.36-.12-.15.09-.24.27-.421.33v.451c.03.09.24,0,.33.03-.06.18-.24.27-.36.421.18.511-.27.631-.451.9v.36c-.24.21-.781.3-.661.751-.421.03-.511.391-.9.481a.406.406,0,0,1-.15.511c.09.06.33,0,.451.06-.06.27-.33.33-.481.511a1.961,1.961,0,0,1-.6-.15c.15-.21.391-.511.33-.811-.21,0-.18.18-.3.27-.15.06-.33.15-.481.21-.12.06-.33.15-.36.33.18.03.12-.21.33-.15a5.032,5.032,0,0,1,.3,1.652c-.09.03-.12.09-.27.06-.06-.27-.3-.36-.631-.36-.18-.15-.21-.421-.36-.6-.27.27.18.6.421.691.03.18-.06.21,0,.33.06.18.391.15.6.12-.03.21-.27.21-.36.33.06.3-.12.33-.18.511-.391.06-.631.12-.811-.15a1.238,1.238,0,0,0-.03-.36.344.344,0,0,0-.3.03.423.423,0,0,0,.3.33c-.03.421.27.511.451.751a1.336,1.336,0,0,1-.511.991c-.12.21-.12.481-.33.511-.27.06-.391-.21-.631-.3-.21.09-.541.09-.481.481,0,.06.06.06.06.12.36-.03.451.18.6.33,0,.24-.15.27-.03.481-.391.3-1.021.36-1.292.781a.607.607,0,0,0,.541.421,1.445,1.445,0,0,1-.33.27c-.09.3.06.36.06.631-.12-.03-.12.06-.27.03a6.611,6.611,0,0,0-.451.781c0,.15.18.09.18.21.03.451-.3.511-.481.751a1.147,1.147,0,0,0,.18.481c-.15.3-.511.811-.21,1.232a7.52,7.52,0,0,1-.27.751c-.451,0-.541-.3-.781-.511-.15.03-.18.12-.27.21-.03.15.09.12.12.21a3.835,3.835,0,0,1-.541,1.232c.09.511-.09.6-.12,1.051-.12.03-.18.09-.15.27-.09,0-.12.06-.18.06-.18,0-.24-.15-.33-.21-.03-.15.12-.12.12-.27-.03-.24-.21-.3-.511-.27-.06.3.27.24.27.481a2.665,2.665,0,0,0-.451.06c-.03.18.03.24.03.421-.21.18-.511-.03-.751-.06.15-.15.391-.511.12-.631-.12,0-.09.18-.15.27-.15.09-.3-.09-.511-.06-.24.06,0,.36-.06.481a1.4,1.4,0,0,1-.991-.03c-.18-.03-.15.15-.3.15-.06-.12-.24-.12-.3-.27.12-.36.3-.691.811-.661.15-.09.12-.36.06-.541-.27-.09-.571.06-.841.06-.15.18.18.451-.06.511-.15,0-.06-.06-.06-.18-.09-.12-.24-.21-.27-.421-.27-.12-.36-.451-.6-.6,0-.12.12-.12.15-.21-.03-.12-.12-.15-.18-.27.06-.09.06-.21.15-.27a.675.675,0,0,1,.421-1.172c-.12-.541-.36-.9-1.051-.811a.587.587,0,0,1-.12-.421c.36-.15.24-.781.481-1.081-.12-.21-.24-.36-.36-.541.09-.451-.15-.6-.18-.991.03,0,.03-.06.03-.12.06-.06.24-.03.27-.12.03-.18-.15-.18-.18-.3.24-.24,0-.871.481-.961v-.421c-.03-.09-.15-.09-.27-.06-.09-.03-.09-.15-.18-.21-.12-.09-.421.03-.33-.3.12-.09.24.03.421,0,0-.15-.24-.03-.21-.18.03-.33.36-.33.451-.6-.15-.12-.24.09-.451.03-.03-.21-.18-.3-.36-.36-.12-.24.06-.6-.27-.661-.09-.421.21-.451.36-.6-.18-.24-.481-.24-.6-.511-.06-.15.03-.3,0-.481-.03-.15-.18-.27-.18-.421a1.211,1.211,0,0,1,.18-.661c0-.12-.18-.24-.06-.33-.06-.18.24,0,.27-.12.03-.21-.18-.15-.27-.21.03-.24.33-.33.21-.6-.3.03-.631-.03-.661-.33-.03-.15.12-.21.12-.421-.03-.18-.21-.18-.3-.3a4.842,4.842,0,0,1-.27-1.562c0-.12-.09-.12-.06-.27a.8.8,0,0,0,.33-.3c-.03-.06-.21.09-.36.03-.06-.12-.12-.18-.18-.3.21-.36-.21-.811,0-1.172-.21-.391-.27-.991-.541-1.292-.03-.391.12-.541,0-.841-.03-.06-.09-.06-.15-.12-.09-.631-.481-.991-.481-1.742.09-.18.36-.15.33-.451-.03-.09-.21-.06-.33-.06a5.556,5.556,0,0,0-.421-.421c0-.631-.661-1.2-.3-1.742a3.543,3.543,0,0,0,.6-.12c.12-.09.18-.27.36-.33.12-.03.09.12.21.12.27-.03.36-.3.541-.451.27-.18.631-.18.841-.451,0-.09.06-.15.06-.27.33-.12.391-.481.9-.421.18-.09.631-.511.961-.481.36.03.451.451.811.511.06.15,0,.24.03.451-.09.12-.391.06-.36.3.03.15.21.15.36.15.15.15.421.21.541.36,0,.15-.15.12-.15.27.09.33.511.3.781.451-.09.391-.451.451-.751.631.12.21.391.09.541.15.24.09.36.33.6.36-.09.15-.27.03-.421,0a1.334,1.334,0,0,1,.03.6c-.06.06-.24,0-.3.06,0,.661.841.451,1.051.9h-.27a4.23,4.23,0,0,1,.03.631c-.09.09-.21.15-.21.33.3-.03.541.18.9.21.06.15-.12.09-.15.18,0,.12.06.18.06.27-.18.27-.03.481-.03.841-.09.15-.421.06-.451.3a.382.382,0,0,0,.33.27c.18.03.391-.12.511-.06.27.06.15.36.451.421-.24.18.03.451.06.661-.03.18-.24.18-.421.27a.976.976,0,0,0,.18.751c.27.06.451.15.481.33.06.36-.36.33-.511.6.18.18.451.481.15.751.21.06.391.12.6.18a1,1,0,0,0,.21.691c.12-.09.18-.18.33-.21.12,0,.18.09.3.12.21-.21-.15-.36-.15-.6,0-.3.27-.36.511-.541.03-.421.21-.691.661-.691.12.03.09.21.21.27.721-.06,0-.631.03-.931.03-.18.24-.21.36-.36a3.692,3.692,0,0,0,.33-.691c.481-.12.6-.571.781-.991.3-.09.571.15.811.27.09-.18.12-.391.27-.511a.551.551,0,0,1-.21-.3.543.543,0,0,1,.481-.481c.06-.21.21-.33.21-.6.33-.24.451-.661.781-.9a2.549,2.549,0,0,1,.27-.661c.21-.09.451-.12.631-.21a.83.83,0,0,0-.06-.421.767.767,0,0,1,.691-.481c.09.06.12.15.18.21.21,0,.18-.24.3-.3.27-.03.421.06.6-.03.03-.15-.09-.12-.06-.21.06-.06.18-.09.21-.18-.03-.391-.451-.27-.691-.36a1.173,1.173,0,0,0-.06-.421c.06-.06.24-.03.36-.03.18-.15.27-.421.511-.511,0-.33.15-.481.511-.451a4.156,4.156,0,0,1,.421-.811,1.524,1.524,0,0,0,.481-.27c.18-.06.21.09.36.06.18-.09-.09-.421,0-.511.03-.18.24-.15.33-.27v-.36c.18-.21.661.06.931-.03,0-.27-.3-.27-.36-.481.03-.451.33-.9.811-.661a1.39,1.39,0,0,1,.9-1.172.831.831,0,0,1,.36-.6.762.762,0,0,1,.36-.06c.15,0,.18.15.3.18.21.06.36-.03.511,0-.09-.36.03-.961-.18-1.172a.7.7,0,0,0,.06-.36,5.5,5.5,0,0,0,1.111-1.322,4.486,4.486,0,0,1,.36-.421c.18-.21.3-.511.451-.541a.758.758,0,0,1,.751.15c.15-.12-.06-.391.18-.421-.15-.33.18-.481.15-.811.18-.15.421-.03.631,0,.12.03.09-.12.18-.15.24-.09.721.09.751-.27-.12-.09-.27.18-.451.03,0-.03,0-.06-.03-.06,0-.24.21-.3.3-.481-.36-.6.3-.871.6-.36.18-.03.18-.27.33-.33a.6.6,0,0,1,.03-.511.79.79,0,0,0,.421-.27c.27,0,.6.03.691-.15-.06-.3-.3-.27-.631-.27-.06-.12-.15-.18-.06-.33.18-.09.24.12.481.06.15,0,0-.27.15-.27s.09.06.06.15c.15.09.15.3.3.36.661-.3.541.661.9.931.03.15-.06.18-.03.33a1.469,1.469,0,0,1,.751-.36c0-.12-.12-.18-.12-.3,0-.15.18-.15.18-.3a.407.407,0,0,0-.18-.33c-.15-.03-.18.06-.3.06-.12-.15-.36-.24-.27-.511-.27.03-.541.15-.631-.12-.15,0-.09.15-.27.12-.15-.18.09-.36.03-.451-.12-.15-.421-.06-.421-.33a.729.729,0,0,1,.541-.15c.06.27.33.3.421.541.36.18.661,0,.661-.36.33-.06.691.21,1.051.15a1.025,1.025,0,0,0,.541-.33c0-.24-.33-.12-.481-.18a.714.714,0,0,0-.511-.36.572.572,0,0,1-.781-.18c-.03-.33.391-.21.631-.3,0-.18-.18-.21-.27-.33.03-.12.03-.27.06-.36.451-.12.691-.481,1.172-.541.06-.24-.18-.21-.18-.36.21.06.24-.18.36-.06.03.21.18.451.03.631.451.15,1.021-.03,1.051-.511,0-.06-.06-.06-.06-.12-.421.15-.871-.09-.691-.511.15-.09.21.09.421.06a.955.955,0,0,0,.541-.481c.391.24,1.081-.33,1.382.03.21-.12.06-.631-.06-.781-.09.06.03.3-.06.36-.33-.06-.481-.27-.481-.661.15-.12.391-.15.36-.451.27.03.391.21.33.36.3,0,.391-.21.511-.36-.12-.33-.631-.451-.541-.841.24-.06.21.12.3.18.18-.03-.06-.27.06-.33.24-.21.6-.3.631-.691.36.03.421-.03.811,0,.36-.15.391-.811.991-.6a.889.889,0,0,1-.06.3c-.27-.06-.511-.03-.451.33-.12,0-.15.12-.21.18,0,.15.12.27.12.421,0,.24-.21.33-.27.541.09.18.36.18.33.481a2.248,2.248,0,0,0-.841.451c-.27-.03-.571-.33-.811-.06.06.21.24.33.36.481.03-.391.511-.33.751-.15a1.066,1.066,0,0,0,.6-.541c.18,0,.21.12.36.15.15-.03.15-.21.3-.27-.15-.09-.391-.421-.15-.541.18,0,.12.24.27.3.36-.24-.06-.511-.12-.811a1.279,1.279,0,0,1,.27-.9c0-.18-.18-.18-.18-.33,0-.12.09-.15.12-.21.3-.06.27.18.511.15.03-.21-.21-.12-.21-.3-.03-.21.21-.15.18-.33.03-.21-.21-.15-.3-.27.421-.15.961.27,1.412,0a.406.406,0,0,0-.21-.481c.09-.15.12-.33.21-.481a1.406,1.406,0,0,0,.691-.12c0-.33.3-.421.21-.751.15-.12.391.06.481-.06,0-.15-.21-.21-.12-.33.15.12.451.09.691.15.09.03.18.12.27.12.511.03.541-.36.21-.661.06-.21.421.03.541-.15.06-.09-.15-.12-.03-.15.27-.03.511,0,.541.21-.03.21-.27.21-.3.421.15.15.391.09.631.06.06.06.03.18,0,.27.391.06.421-.21.541-.421-.06-.33-.481-.15-.661-.33a.583.583,0,0,1,.15-.481c-.15-.21-.511-.18-.9-.18a2.656,2.656,0,0,0-.691-.421,2.638,2.638,0,0,0,.451-.36c.27.03.421.12.541-.06.12-.03.09.12.21.06.15-.21.6-.15.781-.33a.945.945,0,0,1,.15-.6c-.12-.03-.391.03-.481-.12-.03-.18.09-.21.06-.36.09-.03.21-.03.3-.06,0-.09-.09-.09-.15-.12a.527.527,0,0,1,.451-.18c.12-.06.09-.27.18-.33.21-.09.391.06.661.03.12,0,.03-.21.12-.27.481-.12.541.21.781.33.24-.06.391-.15.6-.21.33.18.871-.09,1.081.18.18.03.24-.06.421-.03a.669.669,0,0,0,0-.421,1.133,1.133,0,0,0-.481.15.5.5,0,0,0-.691.06.83.83,0,0,1-.6-.781c.18.06.27.21.481.27a1.946,1.946,0,0,0,.421,0c.09,0,.15.06.27.06.06-.03.15-.03.15-.12-.18-.24-.751-.541-1.081-.3a.353.353,0,0,1-.18-.3c.12-.09.3-.12.36-.27-.15-.27.03-.391.3-.451.12,0,.09.18.15.21.15-.03.15.09.27.06.03,0,.03-.03.06-.03.09.03.12-.21.03-.21.12-.12.24.18.36.03-.03-.24.18-.24.21-.481,0-.18-.18-.15-.3-.18.24-.33.871-.03,1.051.15.15,0,.12-.18.21-.21a.611.611,0,0,1,.36.21c.24-.03.15-.391.21-.6.09-.09.24-.09.3-.18a5.542,5.542,0,0,0,1.051.451c.15-.06.06-.09.06-.27a.778.778,0,0,0,.21-.33A2.057,2.057,0,0,1,257.14,93.841Zm-4.386,1.5c.09.03.18.12.27.03,0-.06-.03-.09-.03-.15A.235.235,0,0,0,252.754,95.343Zm.721.27c0-.12-.12-.15-.27-.15A.163.163,0,0,0,253.475,95.613Zm0,.6c.24-.06.511.15.541-.12C253.956,95.824,253.085,95.854,253.475,96.214Zm.481.481c.06,0,.09.03.15.03C254.256,96.544,253.956,96.454,253.956,96.695Zm-1.8,1.472c.12.03.24.15.36.03C252.514,98.016,252.184,97.956,252.153,98.167Zm-3.6,1.893c-.03.27.481.21.541.06C249.119,99.729,248.7,99.849,248.549,100.059Zm-2.884,2.193c.06.12.18.21.21.33.451-.09.571.541.9.12a2.452,2.452,0,0,0-.421-.781c-.15-.03-.21.09-.3,0-.03-.33.21-.36.27-.6C245.725,101.02,245.695,101.8,245.665,102.252Zm3.935-.751a.268.268,0,0,0,.33-.21h-.33A.254.254,0,0,0,249.6,101.5Zm-2.073,1.051a.144.144,0,0,0,.27-.06C247.708,102.4,247.5,102.4,247.527,102.552Zm-3.485,1.352c.09,0,.18,0,.21-.03v-.12c-.03-.09-.18-.09-.3-.12A.254.254,0,0,0,244.043,103.9Zm-.571.24c-.09.06-.09.21-.06.36.24.18.451-.03.661-.03.18,0,.3.12.481.03C244.433,104.145,243.893,104.2,243.472,104.145Zm1.051.721c0,.12.06.18.06.27.15-.03.27-.03.33-.15-.06-.06-.06-.15-.12-.18C244.674,104.775,244.613,104.835,244.523,104.866Zm.661.12c.12.09.24-.03.27-.15C245.3,104.835,245.184,104.866,245.184,104.986Zm-4.146.15c.06-.06.06-.15-.03-.15C240.949,105.046,240.949,105.106,241.039,105.136Zm4.746.3c.12.09.421.18.511.03a.814.814,0,0,0-.691-.36A.462.462,0,0,0,245.785,105.436Zm-1.2.06c0-.12,0-.21-.12-.18C244.4,105.406,244.493,105.5,244.583,105.5Zm-4,.421a.829.829,0,0,0,.6,0c.12,0,.15.18.27.06-.03-.18-.24-.18-.481-.18-.15-.03-.12-.27-.27-.33A1.258,1.258,0,0,1,240.588,105.917Zm2.644.33a.325.325,0,0,1,.33,0c.03-.18-.09-.27-.15-.36C243.111,105.8,243.111,106.127,243.232,106.247Zm-2.193,2.824c.06-.06.03-.27-.12-.21A.144.144,0,0,0,241.039,109.071Zm-2.523.24c.03-.12-.06-.12-.12-.15C238.365,109.281,238.455,109.281,238.515,109.311Zm.09.961a.753.753,0,0,1-.21.12c-.06.33.421.15.27.451.12,0,.15.12.21.03a1.15,1.15,0,0,1-.03-.841c-.06-.09-.06-.24-.27-.18C238.485,110,238.575,110.092,238.605,110.273Zm2.283-.15c.15-.06.451,0,.6-.06.03-.12-.03-.15-.06-.21C241.129,109.792,240.949,110.123,240.889,110.123Zm-.781.451c-.06.21.24.21.18,0C240.168,110.543,240.228,110.543,240.107,110.573Zm.451.481c.06.03.06.09.12.15.12.03.15-.06.27-.03a.736.736,0,0,0,.12-.36C240.858,110.543,240.588,110.813,240.558,111.054Zm-1.111.661c0,.12,0,.21.12.18.03-.09.09-.21-.03-.21C239.507,111.715,239.477,111.745,239.447,111.715Zm-.961.3c0,.3.451.06.3-.12C238.7,111.985,238.545,111.955,238.485,112.015Zm-.721.871c.18.06.36.27.541.18-.03-.33-.451-.27-.451-.661C237.764,112.466,237.824,112.706,237.764,112.886Zm-.36.36c.06-.09.18-.09.18-.21a3.805,3.805,0,0,0-.541-.18C237.043,113.1,237.254,113.157,237.4,113.247Zm-.751.12c0-.06-.03-.15-.03-.06C236.623,113.337,236.653,113.427,236.653,113.367Zm.691.481a.676.676,0,0,0,.451.15C237.945,113.7,237.374,113.517,237.344,113.847Zm-3.425.06c.09.09.391.18.421-.03-.03-.12-.21-.12-.36-.12C233.979,113.817,233.919,113.847,233.919,113.908Zm.721.961c0,.21.06.33.21.36a.3.3,0,0,0,.18-.27A.308.308,0,0,0,234.64,114.869Zm-2.313,1.232c-.24-.09-.3-.33-.481-.3a.256.256,0,0,0,.03.511c.15,0,.18-.12.36-.12a5.224,5.224,0,0,1,.33.541c-.24.06-.451.03-.481.21-.09.451.751.24.991.06,0-.15-.18-.09-.15-.27-.06-.33.18-.421.06-.691C232.808,116.07,232.658,116.221,232.327,116.1Zm-1.742.36c.12,0,.24.12.33.03C230.915,116.311,230.615,116.191,230.585,116.461Zm.571.421h.18c.09-.06.09-.18.06-.33C231.126,116.461,231.005,116.731,231.156,116.881Zm-1.352.391c.12.03.12-.06.27-.03.03-.12-.06-.15-.12-.18C229.924,117.152,229.8,117.152,229.8,117.272Zm3.665,1.111c.21,0,.09.21.06.33.03.03.12.03.21.03.03-.21.24-.24.3-.421-.03-.15-.12-.21-.3-.21C233.769,118.323,233.589,118.323,233.469,118.383Zm-3.184,0c.03.15.12.21.3.21v-.21A.273.273,0,0,0,230.284,118.383Zm4.866.751c.12,0,.12-.3-.03-.27C234.971,118.924,234.971,119.134,235.151,119.134Zm-5.407.12c-.03.12.12.12.21.12A.122.122,0,0,0,229.744,119.255Zm-4.446,3.064a.468.468,0,0,0,.541.27.746.746,0,0,0,0-.511C225.538,122.018,225.568,122.319,225.3,122.319Zm5.738.18a.4.4,0,0,0,.421.21C231.816,122.379,231.065,121.958,231.035,122.5Zm-23.191,1.893a.269.269,0,0,0,.421.06A.213.213,0,0,0,207.845,124.391Zm16.973,4.476a1.575,1.575,0,0,0,.511.06c.09.03.09.18.21.18.27-.18.15-.511-.03-.691A.742.742,0,0,0,224.817,128.867Zm1.352.24v-.12h-.12C226.079,129.078,226.109,129.108,226.169,129.108Zm.721.06c-.3.09-1.021.33-.6.631.12-.09.06-.33.27-.33.24-.03.24.15.451.06C227.01,129.348,226.92,129.288,226.89,129.168Zm-2.253,1.2a.065.065,0,0,1,.06.06c.15,0,.21-.06.18-.21C224.727,130.189,224.637,130.219,224.637,130.369Zm-14.059.24c0-.09-.03-.12-.12-.12C210.458,130.61,210.548,130.58,210.578,130.61Zm14.689.511c0-.06.12-.03.12-.12C225.328,130.94,225.148,131.06,225.268,131.12Zm-4.506,6.128c.09,0,.18,0,.18-.06C220.912,137.1,220.762,137.128,220.762,137.249Zm-9.583,14.78c0,.15.24.18.33.12C211.54,151.968,211.269,151.938,211.179,152.028Z" transform="translate(-203.742 -81.525)" fill="#009453" fill-rule="evenodd"/></g></g></svg>